<?xml version="1.0" encoding="UTF-8"?>
<svg width="57px" height="55px" viewBox="0 0 57 55" version="1.1" xmlns="http://www.w3.org/2000/svg" xmlns:xlink="http://www.w3.org/1999/xlink">
    <title>1B0B2FAB-7890-4EF4-BB42-B5F61E5D68D9</title>
    <g id="Page-1" stroke="none" stroke-width="1" fill="none" fill-rule="evenodd">
        <g id="LQ-UI-V01-(Dark-mode)" transform="translate(-132.000000, -2749.000000)" fill="#FFFFFF" fill-rule="nonzero">
            <g id="001-github" transform="translate(132.026427, 2749.328753)">
                <path d="M27.9038055,0.0720191134 C12.486953,0.0720191134 0,12.2403685 0,27.2479994 C0,39.2573306 7.99444027,49.4414094 19.079227,53.0319943 C20.4744173,53.2878062 20.985987,52.446623 20.985987,51.7252795 C20.985987,51.0799883 20.9627339,49.3699665 20.9511073,47.1045332 C13.1891987,48.7431121 11.5521755,43.4586376 11.5521755,43.4586376 C10.2825523,40.3220612 8.44787711,39.4831826 8.44787711,39.4831826 C5.9202574,37.7985115 8.64320375,37.8330806 8.64320375,37.8330806 C11.4452109,38.0220588 12.9171366,40.6331838 12.9171366,40.6331838 C15.4052259,44.7883985 19.4489524,43.5876959 21.04412,42.8940078 C21.2952542,41.1355891 22.0137772,39.9394957 22.811361,39.2596352 C16.6143908,38.5797748 10.1011776,36.2428986 10.1011776,25.8306633 C10.1011776,22.8646281 11.18245,20.4401767 12.9729442,18.5388721 C12.6590264,17.8520978 11.717273,15.0888685 13.2171025,11.3461792 C13.2171025,11.3461792 15.5540462,10.6179219 20.890649,14.1324547 C23.1229535,13.5286464 25.4947769,13.2290469 27.8666004,13.2152192 C30.2384239,13.2290469 32.6102473,13.5286464 34.8425518,14.1324547 C40.1442748,10.6179219 42.4812185,11.3461792 42.4812185,11.3461792 C43.9810481,15.0888685 43.0392946,17.8520978 42.7602566,18.5388721 C44.5391242,20.4401767 45.6203966,22.8646281 45.6203966,25.8306633 C45.6203966,36.270554 39.0978821,38.5682518 32.8892854,39.2365891 C33.8659186,40.0524216 34.7727923,41.7186559 34.7727923,44.2652517 C34.7727923,47.9019289 34.7379125,50.8241764 34.7379125,51.7068426 C34.7379125,52.4189676 35.2262291,53.2693693 36.6562991,52.9974252 C47.8201466,49.4298864 55.807611,39.2388937 55.807611,27.2479994 C55.807611,12.2403685 43.3136821,0.0720191134 27.9038055,0.0720191134 L27.9038055,0.0720191134 Z" id="Path"></path>
            </g>
        </g>
    </g>
</svg>