<?xml version="1.0" encoding="UTF-8"?>
<svg width="56px" height="56px" viewBox="0 0 56 56" version="1.1" xmlns="http://www.w3.org/2000/svg" xmlns:xlink="http://www.w3.org/1999/xlink">
    <title>0EFF0B0E-DF22-4343-9103-223EFD115F72</title>
    <defs>
        <rect id="path-1" x="0" y="0" width="40" height="40" rx="20"></rect>
        <filter x="-30.0%" y="-30.0%" width="160.0%" height="160.0%" filterUnits="objectBoundingBox" id="filter-2">
            <feOffset dx="0" dy="0" in="SourceAlpha" result="shadowOffsetOuter1"></feOffset>
            <feGaussianBlur stdDeviation="4" in="shadowOffsetOuter1" result="shadowBlurOuter1"></feGaussianBlur>
            <feColorMatrix values="0 0 0 0 0   0 0 0 0 0   0 0 0 0 0  0 0 0 0.125546329 0" type="matrix" in="shadowBlurOuter1"></feColorMatrix>
        </filter>
    </defs>
    <g id="Page-1" stroke="none" stroke-width="1" fill="none" fill-rule="evenodd">
        <g id="LQ-UI-V01-(Dark-mode)" transform="translate(-4.000000, -10.000000)">
            <g id="button-light-bulb-night" transform="translate(12.000000, 18.000000)">
                <g id="Rectangle">
                    <use fill="black" fill-opacity="1" filter="url(#filter-2)" xlink:href="#path-1"></use>
                    <use fill="#4C4070" fill-rule="evenodd" xlink:href="#path-1"></use>
                </g>
                <g id="lightbulb-solid" transform="translate(13.000000, 10.000000)" fill="#FFFFFF" fill-rule="nonzero">
                    <path d="M3.64900285,17.2592593 C3.64938272,17.4981956 3.72003799,17.7321937 3.85261159,17.9312441 L4.50180437,18.9071225 C4.727047,19.2459466 5.10690898,19.4495726 5.51377018,19.4495726 L7.85792972,19.4495726 C8.26479092,19.4495726 8.6446529,19.2459466 8.86989554,18.9071225 L9.51908832,17.9312441 C9.65160467,17.7321651 9.72243162,17.4984097 9.72269706,17.2592593 L9.72421652,15.8024691 L3.64710351,15.8024691 L3.64900285,17.2592593 Z M0,6.68566002 C0,8.3711301 0.624881292,9.90883191 1.65470085,11.0837607 C2.28224122,11.7998101 3.26381766,13.2957265 3.6379867,14.5576448 C3.63950617,14.5675214 3.64064577,14.5773979 3.64216524,14.5872745 L9.7291548,14.5872745 C9.73067426,14.5773979 9.73181387,14.5679012 9.73333333,14.5576448 C10.1075024,13.2957265 11.0890788,11.7998101 11.7166192,11.0837607 C12.7464387,9.90883191 13.37132,8.3711301 13.37132,6.68566002 C13.37132,2.98613485 10.3669516,-0.0113960114 6.66476733,-3.23866286e-05 C2.78974359,0.0117758784 0,3.15175689 0,6.68566002 Z M6.68566002,3.64672365 C5.01006648,3.64672365 3.64672365,5.01006648 3.64672365,6.68566002 C3.64672365,7.02146249 3.37473884,7.29344729 3.03893637,7.29344729 C2.7031339,7.29344729 2.4311491,7.02146249 2.4311491,6.68566002 C2.4311491,4.33960114 4.33960114,2.4311491 6.68566002,2.4311491 C7.02146249,2.4311491 7.29344729,2.7031339 7.29344729,3.03893637 C7.29344729,3.37473884 7.02146249,3.64672365 6.68566002,3.64672365 Z" id="Shape"></path>
                </g>
            </g>
        </g>
    </g>
</svg>