<?xml version="1.0" encoding="UTF-8"?>
<svg width="56px" height="56px" viewBox="0 0 56 56" version="1.1" xmlns="http://www.w3.org/2000/svg" xmlns:xlink="http://www.w3.org/1999/xlink">
    <title>5F9394D4-C829-40F3-975C-97C138B46A70</title>
    <defs>
        <rect id="path-1" x="0" y="-5.32907052e-14" width="40" height="40" rx="20"></rect>
        <filter x="-30.0%" y="-30.0%" width="160.0%" height="160.0%" filterUnits="objectBoundingBox" id="filter-2">
            <feOffset dx="0" dy="0" in="SourceAlpha" result="shadowOffsetOuter1"></feOffset>
            <feGaussianBlur stdDeviation="4" in="shadowOffsetOuter1" result="shadowBlurOuter1"></feGaussianBlur>
            <feColorMatrix values="0 0 0 0 0   0 0 0 0 0   0 0 0 0 0  0 0 0 0.125546329 0" type="matrix" in="shadowBlurOuter1"></feColorMatrix>
        </filter>
    </defs>
    <g id="Page-1" stroke="none" stroke-width="1" fill="none" fill-rule="evenodd">
        <g id="LQ-UI-V01" transform="translate(-4.000000, -10.000000)">
            <g id="button-light-bulb" transform="translate(12.000000, 18.000000)">
                <g id="Rectangle">
                    <use fill="black" fill-opacity="1" filter="url(#filter-2)" xlink:href="#path-1"></use>
                    <use fill="#FFFFFF" fill-rule="evenodd" xlink:href="#path-1"></use>
                </g>
                <g id="lightbulb-regular" transform="translate(13.000000, 9.000000)" fill="#493D6E" fill-rule="nonzero">
                    <path d="M6.875,3.125 C4.80703125,3.125 3.125,4.80703125 3.125,6.875 C3.125,7.2203125 3.4046875,7.5 3.75,7.5 C4.0953125,7.5 4.375,7.2203125 4.375,6.875 C4.375,5.49609375 5.496875,4.375 6.875,4.375 C7.2203125,4.375 7.5,4.0953125 7.5,3.75 C7.5,3.4046875 7.2203125,3.125 6.875,3.125 Z M3.75234375,17.9363281 C3.75234375,18.059375 3.78867188,18.1792969 3.85703125,18.2816406 L4.81445313,19.7207031 C4.93046875,19.8949219 5.12578125,19.9996094 5.33476563,19.9996094 L8.41484375,19.9996094 C8.62421875,19.9996094 8.81953125,19.8949219 8.93515625,19.7207031 L9.89257813,18.2816406 C9.96054688,18.1792969 9.996875,18.0589844 9.99726563,17.9363281 L9.99921875,16.2496094 L3.75078125,16.2496094 L3.75234375,17.9363281 Z M6.875,0 C2.8796875,0 0,3.24101563 0,6.875 C0,8.60820313 0.642578125,10.1894531 1.7015625,11.3976563 C2.3515625,12.1394531 3.37109375,13.6945313 3.74921875,14.9976563 L3.74921875,15 L5.62421875,15 L5.62421875,14.9953125 C5.62382813,14.8089844 5.59609375,14.6238281 5.54023438,14.4457031 C5.321875,13.75 4.64882813,11.915625 3.11171875,10.1617187 C2.309375,9.24648437 1.88046875,8.08554687 1.87695313,6.875 C1.86914063,3.9984375 4.2078125,1.875 6.875,1.875 C9.63203125,1.875 11.875,4.11796875 11.875,6.875 C11.875,8.08476562 11.4359375,9.25195312 10.6386719,10.1617187 C9.1109375,11.9042969 8.43476562,13.7347656 8.21289063,14.4375 C8.15562834,14.6181769 8.12638287,14.8065599 8.12617188,14.9960937 L8.12617188,15 L10.0011719,15 L10.0011719,14.9980469 C10.3792969,13.6945313 11.3988281,12.1394531 12.0488281,11.3980469 C13.1074219,10.1894531 13.75,8.60820313 13.75,6.875 C13.75,3.078125 10.671875,0 6.875,0 Z" id="Shape"></path>
                </g>
            </g>
        </g>
    </g>
</svg>