<?xml version="1.0" encoding="UTF-8"?>
<svg width="56px" height="56px" viewBox="0 0 56 56" version="1.1" xmlns="http://www.w3.org/2000/svg" xmlns:xlink="http://www.w3.org/1999/xlink">
    <title>75822CED-8AF8-45FC-A000-71DE0A9FE025</title>
    <g id="Page-1" stroke="none" stroke-width="1" fill="none" fill-rule="evenodd">
        <g id="LQ-UI-V01-(Dark-mode)" transform="translate(-43.000000, -2748.000000)" fill="#FFFFFF" fill-rule="nonzero">
            <g id="003-linkedin" transform="translate(43.000000, 2748.000000)">
                <path d="M27.9038055,0 C12.4953153,0 0,12.4953153 0,27.9038055 C0,43.3122957 12.4953153,55.807611 27.9038055,55.807611 C43.3122957,55.807611 55.807611,43.3122957 55.807611,27.9038055 C55.807611,12.4953153 43.3122957,0 27.9038055,0 Z M19.7952839,42.1827059 L12.9994368,42.1827059 L12.9994368,21.7372586 L19.7952839,21.7372586 L19.7952839,42.1827059 Z M16.3975732,18.9454304 L16.3532923,18.9454304 C14.0728238,18.9454304 12.5979278,17.3755859 12.5979278,15.4135996 C12.5979278,13.4073323 14.1179563,11.8809172 16.4427056,11.8809172 C18.7674552,11.8809172 20.1980702,13.4073323 20.2423511,15.4135996 C20.2423511,17.3755859 18.7674552,18.9454304 16.3975732,18.9454304 Z M44.2996756,42.1827059 L37.5046799,42.1827059 L37.5046799,31.2448877 C37.5046799,28.4960631 36.5207064,26.6213613 34.0618368,26.6213613 C32.1845804,26.6213613 31.0664866,27.8859228 30.5751384,29.1066291 C30.39546,29.5434777 30.3516048,30.1540437 30.3516048,30.7650355 L30.3516048,42.1827059 L23.5561834,42.1827059 C23.5561834,42.1827059 23.6451712,23.6553898 23.5561834,21.7372586 L30.3516048,21.7372586 L30.3516048,24.6321252 C31.2546806,23.2389786 32.8705091,21.2574066 36.4759996,21.2574066 C40.9470973,21.2574066 44.2996756,24.1795228 44.2996756,30.4593267 L44.2996756,42.1827059 Z" id="Shape"></path>
            </g>
        </g>
    </g>
</svg>