<?xml version="1.0" encoding="UTF-8"?>
<svg width="57px" height="57px" viewBox="0 0 57 57" version="1.1" xmlns="http://www.w3.org/2000/svg" xmlns:xlink="http://www.w3.org/1999/xlink">
    <title>65396860-DFDE-4974-9037-79FC5989B965</title>
    <g id="Page-1" stroke="none" stroke-width="1" fill="none" fill-rule="evenodd">
        <g id="LQ-UI-V01-(Dark-mode)" transform="translate(-221.000000, -2749.000000)" fill="#FFFFFF" fill-rule="nonzero">
            <g id="002-skype" transform="translate(221.052854, 2749.328753)">
                <path d="M54.0951622,33.8033431 C58.1286854,15.7132807 42.2498789,-0.720649254 23.6023768,2.43410939 C13.4791155,-3.83603132 0,3.24943615 0,15.2708733 C0,18.0666102 0.772821186,20.6839944 2.11655532,22.9400406 C-1.63151139,41.0717959 14.377259,57.2694664 33.0085157,53.8992947 C46.1789668,60.8504185 60.7326054,46.9875474 54.0951622,33.8033431 L54.0951622,33.8033431 Z M36.3690114,44.712971 C31.476798,46.7211764 23.4259971,46.7327578 18.5546708,44.1871779 C11.6085633,40.4904123 10.373906,32.1680571 16.3661712,32.1680571 C20.8824175,32.1680571 19.4528144,37.4236719 24.0131556,39.5662209 C26.1065031,40.5321051 30.6065039,40.6317047 33.2220279,38.8713401 C35.8050608,37.1457196 35.5683408,34.4310521 34.1642663,33.1339413 C30.444049,29.7058629 19.7986112,31.0678292 14.9319265,25.0663757 C12.8176919,22.4628891 12.418517,17.8697273 15.0177955,14.5389322 C19.5479665,8.72046399 32.8414192,8.36607481 38.5575111,12.7600375 C43.8349746,16.8366713 42.4100131,22.2474761 38.1513738,22.2474761 C33.0294028,22.2474761 35.7215126,15.5580907 27.452558,15.5580907 C21.457972,15.5580907 19.1000551,19.8130772 23.3215618,21.8838218 C29.044616,24.7212516 43.6284248,23.7738975 43.6284248,34.8618782 C43.6168209,39.4758864 40.7831432,42.9155461 36.3690114,44.712971 L36.3690114,44.712971 Z" id="Shape"></path>
            </g>
        </g>
    </g>
</svg>